<svg width="898" height="273" xmlns="http://www.w3.org/2000/svg" xmlns:xlink="http://www.w3.org/1999/xlink" xml:space="preserve" overflow="hidden"><g transform="translate(-200 -381)"><rect x="486" y="382" width="103" height="59" stroke="#5B9BD5" stroke-width="2" stroke-miterlimit="8" fill="#FFFFFF"/><text font-family="Calibri,Calibri_MSFontService,Arial" font-weight="400" font-size="16" transform="translate(509.437 407)">Business </text><text font-family="Calibri,Calibri_MSFontService,Arial" font-weight="400" font-size="16" transform="translate(508.47 426)">Approval</text><rect x="639" y="382" width="103" height="59" stroke="#5B9BD5" stroke-width="2" stroke-miterlimit="8" fill="#FFFFFF"/><text font-family="Calibri,Calibri_MSFontService,Arial" font-weight="400" font-size="16" transform="translate(674.136 407)">Legal </text><text font-family="Calibri,Calibri_MSFontService,Arial" font-weight="400" font-size="16" transform="translate(661.769 426)">Approval</text><rect x="628.5" y="487.5" width="125" height="59" stroke="#4472C4" stroke-width="1.33333" stroke-miterlimit="8" fill="#FFFFFF"/><text font-family="Calibri,Calibri_MSFontService,Arial" font-weight="400" font-size="16" transform="translate(637.872 503)">Expertise</text><text font-family="Calibri,Calibri_MSFontService,Arial" font-weight="400" font-size="16" transform="translate(697.872 503)">-</text><text font-family="Calibri,Calibri_MSFontService,Arial" font-weight="400" font-size="16" transform="translate(702.705 503)">type:</text><text font-family="Calibri,Calibri_MSFontService,Arial" font-weight="400" font-size="16" transform="translate(637.872 522)">Juridisch</text><text font-family="Calibri,Calibri_MSFontService,Arial" font-weight="400" font-size="16" transform="translate(637.872 541)">(Legal)</text><path d="M0 0 0.232126 45.9607" stroke="#4472C4" stroke-width="0.666667" stroke-miterlimit="8" stroke-dasharray="5.33333 2" fill="none" fill-rule="evenodd" transform="matrix(-1 0 0 1 691.732 441.5)"/><rect x="475.5" y="487.5" width="125" height="59" stroke="#4472C4" stroke-width="1.33333" stroke-miterlimit="8" fill="#FFFFFF"/><text font-family="Calibri,Calibri_MSFontService,Arial" font-weight="400" font-size="16" transform="translate(485.004 503)">Expertise</text><text font-family="Calibri,Calibri_MSFontService,Arial" font-weight="400" font-size="16" transform="translate(545.004 503)">-</text><text font-family="Calibri,Calibri_MSFontService,Arial" font-weight="400" font-size="16" transform="translate(549.838 503)">type:</text><text font-family="Calibri,Calibri_MSFontService,Arial" font-weight="400" font-size="16" transform="translate(485.004 522)">Inhoudelijk</text><text font-family="Calibri,Calibri_MSFontService,Arial" font-weight="400" font-size="16" transform="translate(485.004 541)">(Business)</text><path d="M537.5 441.5 537.699 487.421" stroke="#4472C4" stroke-width="0.666667" stroke-miterlimit="8" stroke-dasharray="5.33333 2" fill="none" fill-rule="evenodd"/><rect x="797" y="382" width="102" height="59" stroke="#5B9BD5" stroke-width="2" stroke-miterlimit="8" fill="#FFFFFF"/><text font-family="Calibri,Calibri_MSFontService,Arial" font-weight="400" font-size="16" transform="translate(819.441 407)">Financial </text><text font-family="Calibri,Calibri_MSFontService,Arial" font-weight="400" font-size="16" transform="translate(819.061 426)">Approval</text><rect x="955" y="382" width="103" height="59" stroke="#000000" stroke-width="2" stroke-miterlimit="8" fill="#FFFFFF"/><text font-family="Calibri,Calibri_MSFontService,Arial" font-weight="400" font-size="16" transform="translate(979.805 416)">Activate</text><rect x="786.5" y="513.5" width="124" height="83" stroke="#4472C4" stroke-width="1.33333" stroke-miterlimit="8" fill="#FFFFFF"/><text font-family="Calibri,Calibri_MSFontService,Arial" font-weight="400" font-size="16" transform="translate(795.396 531)">Expertise</text><text font-family="Calibri,Calibri_MSFontService,Arial" font-weight="400" font-size="16" transform="translate(855.396 531)">-</text><text font-family="Calibri,Calibri_MSFontService,Arial" font-weight="400" font-size="16" transform="translate(860.23 531)">type:</text><text font-family="Calibri,Calibri_MSFontService,Arial" font-weight="400" font-size="16" transform="translate(795.396 550)">Contract</text><text font-family="Calibri,Calibri_MSFontService,Arial" font-weight="400" font-size="16" transform="translate(850.923 550)">-</text><text font-family="Calibri,Calibri_MSFontService,Arial" font-weight="400" font-size="16" transform="translate(795.396 569)">financieel</text><text font-family="Calibri,Calibri_MSFontService,Arial" font-weight="400" font-size="16" transform="translate(795.396 589)">(Financial)</text><path d="M848.5 441.5 848.5 513.997" stroke="#4472C4" stroke-width="0.666667" stroke-miterlimit="8" stroke-dasharray="5.33333 2" fill="none" fill-rule="evenodd"/><path d="M0 0 17.4021 0 17.4021 42.4187 34.8042 42.4187" stroke="#4472C4" stroke-width="0.666667" stroke-miterlimit="8" stroke-dasharray="5.33333 2" fill="none" fill-rule="evenodd" transform="matrix(-1 1.22465e-16 1.22465e-16 1 945.304 512.5)"/><path d="M945.304 598.213 927.902 598.213 927.902 554.5 910.5 554.5" stroke="#4472C4" stroke-width="0.666667" stroke-miterlimit="8" stroke-dasharray="5.33333 2" fill="none" fill-rule="evenodd"/><text fill="#2E75B6" font-family="Wingdings,Wingdings_MSFontService,Arial" font-weight="400" font-size="12" transform="translate(952.223 557)"></text><text fill="#2E75B6" font-family="Calibri,Calibri_MSFontService,Arial" font-weight="400" font-size="12" transform="translate(970.223 557)">Number of approvals: 1</text><text fill="#2E75B6" font-family="Wingdings,Wingdings_MSFontService,Arial" font-weight="400" font-size="12" transform="translate(953.747 643)"></text><text fill="#2E75B6" font-family="Calibri,Calibri_MSFontService,Arial" font-weight="400" font-size="12" transform="translate(971.747 643)">Number of approvals: 2</text><rect x="945.5" y="482.5" width="126" height="60" stroke="#4472C4" stroke-width="1.33333" stroke-miterlimit="8" fill="#FFFFFF"/><text font-family="Calibri,Calibri_MSFontService,Arial" font-weight="400" font-size="16" transform="translate(954.664 501)">Limit</text><text font-family="Calibri,Calibri_MSFontService,Arial" font-weight="400" font-size="16" transform="translate(986.831 501)">-</text><text font-family="Calibri,Calibri_MSFontService,Arial" font-weight="400" font-size="16" transform="translate(991.664 501)">Type</text><text fill="#7030A0" font-family="Calibri,Calibri_MSFontService,Arial" font-weight="400" font-size="14" transform="translate(954.664 518)">Contract</text><text fill="#7030A0" font-family="Calibri,Calibri_MSFontService,Arial" font-weight="400" font-size="14" transform="translate(1003.66 518)">-</text><text fill="#7030A0" font-family="Calibri,Calibri_MSFontService,Arial" font-weight="400" font-size="14" transform="translate(1008 518)">eigenaar</text><text fill="#7030A0" font-family="Calibri,Calibri_MSFontService,Arial" font-weight="400" font-size="14" transform="translate(954.664 535)">(contract</text><text fill="#7030A0" font-family="Calibri,Calibri_MSFontService,Arial" font-weight="400" font-size="14" transform="translate(1006.33 535)">-</text><text fill="#7030A0" font-family="Calibri,Calibri_MSFontService,Arial" font-weight="400" font-size="14" transform="translate(1010.66 535)">owner)</text><rect x="945.5" y="569.5" width="126" height="59" stroke="#4472C4" stroke-width="1.33333" stroke-miterlimit="8" fill="#FFFFFF"/><text font-family="Calibri,Calibri_MSFontService,Arial" font-weight="400" font-size="16" transform="translate(954.664 587)">Limit</text><text font-family="Calibri,Calibri_MSFontService,Arial" font-weight="400" font-size="16" transform="translate(986.831 587)">-</text><text font-family="Calibri,Calibri_MSFontService,Arial" font-weight="400" font-size="16" transform="translate(991.664 587)">Type</text><text fill="#7030A0" font-family="Calibri,Calibri_MSFontService,Arial" font-weight="400" font-size="14" transform="translate(954.664 604)">Contract</text><text fill="#7030A0" font-family="Calibri,Calibri_MSFontService,Arial" font-weight="400" font-size="14" transform="translate(1003.66 604)">-</text><text fill="#7030A0" font-family="Calibri,Calibri_MSFontService,Arial" font-weight="400" font-size="14" transform="translate(1008 604)">directie</text><text fill="#7030A0" font-family="Calibri,Calibri_MSFontService,Arial" font-weight="400" font-size="14" transform="translate(954.664 621)">(Contract</text><text fill="#7030A0" font-family="Calibri,Calibri_MSFontService,Arial" font-weight="400" font-size="14" transform="translate(1007.83 621)">-</text><text fill="#7030A0" font-family="Calibri,Calibri_MSFontService,Arial" font-weight="400" font-size="14" transform="translate(1012.16 621)">board)</text><rect x="327" y="382" width="103" height="59" stroke="#000000" stroke-width="2" stroke-miterlimit="8" fill="#FFFFFF"/><text font-family="Calibri,Calibri_MSFontService,Arial" font-weight="400" font-size="16" transform="translate(344.876 407)">Submit for </text><text font-family="Calibri,Calibri_MSFontService,Arial" font-weight="400" font-size="16" transform="translate(349.91 426)">Approval</text><rect x="201" y="382" width="103" height="59" stroke="#C00000" stroke-width="2" stroke-miterlimit="8" fill="#FFFFFF"/><text font-family="Calibri,Calibri_MSFontService,Arial" font-weight="400" font-size="16" transform="translate(223.982 417)">Rejected</text><path d="M430.5 411.167 479.467 411.167 479.467 411.833 430.5 411.833ZM478.134 407.5 486.134 411.5 478.134 415.5Z" fill="#BF9000"/><path d="M0.000265389-0.333333 43.7061-0.298536 43.7056 0.36813-0.000265389 0.333333ZM42.3757-3.96626 50.3725 0.040105 42.3693 4.03373Z" fill="#BF9000" transform="matrix(1 0 0 -1 589.5 411.54)"/><path d="M0.00130673-0.333331 47.6999-0.146342 47.6973 0.520319-0.00130673 0.333331ZM46.381-3.81821 54.3652 0.213123 46.3496 4.18173Z" fill="#BF9000" transform="matrix(1 0 0 -1 742.5 411.713)"/><path d="M899.5 411.167 948.074 411.167 948.074 411.833 899.5 411.833ZM946.741 407.5 954.741 411.5 946.741 415.5Z" fill="#BF9000"/></g></svg>