<svg width="1388" height="169" xmlns="http://www.w3.org/2000/svg" xmlns:xlink="http://www.w3.org/1999/xlink" xml:space="preserve" overflow="hidden"><g transform="translate(115 -6)"><rect x="649" y="91" width="103" height="83" stroke="#C55A11" stroke-width="2" stroke-miterlimit="8" fill="#FFFFFF"/><text font-family="Calibri,Calibri_MSFontService,Arial" font-weight="400" font-size="16" transform="translate(672.824 138)">Approve</text><rect x="398" y="91" width="103" height="83" stroke="#C55A11" stroke-width="2" stroke-miterlimit="8" fill="#FFFFFF"/><text font-family="Calibri,Calibri_MSFontService,Arial" font-weight="400" font-size="16" transform="translate(422.918 138)">Request</text><path d="M387.5 19.5002C387.5 14.5296 391.53 10.5001 396.5 10.5001L503.5 10.5001C508.471 10.5001 512.5 14.5296 512.5 19.5002L512.5 55.4999C512.5 60.4705 508.471 64.5001 503.5 64.5001L396.5 64.5001C391.53 64.5001 387.5 60.4705 387.5 55.4999Z" stroke="#BF9000" stroke-width="1.33333" stroke-miterlimit="8" fill="#BF9000" fill-rule="evenodd" fill-opacity="0.501961"/><text fill="#FFFFFF" font-family="Calibri,Calibri_MSFontService,Arial" font-weight="700" font-size="15" transform="translate(418.184 31)">Requester</text><path d="M397.5 41.5001C397.5 39.8432 398.843 38.5001 400.5 38.5001L503.5 38.5001C505.157 38.5001 506.5 39.8432 506.5 41.5001L506.5 53.5C506.5 55.1569 505.157 56.5001 503.5 56.5001L400.5 56.5001C398.843 56.5001 397.5 55.1569 397.5 53.5Z" stroke="#FFFFFF" stroke-width="1.33333" stroke-miterlimit="8" fill="none" fill-rule="evenodd"/><text fill="#FFFFFF" font-family="Calibri,Calibri_MSFontService,Arial" font-weight="400" font-size="15" transform="translate(440.393 52)">P2P</text><path d="M638.5 17.5126C638.5 13.0874 642.087 9.50005 646.513 9.50005L755.488 9.50005C759.913 9.50005 763.5 13.0874 763.5 17.5126L763.5 54.4875C763.5 58.9127 759.913 62.5001 755.488 62.5001L646.513 62.5001C642.087 62.5001 638.5 58.9127 638.5 54.4875Z" stroke="#00B0F0" stroke-width="1.33333" stroke-miterlimit="8" fill="#00B0F0" fill-rule="evenodd" fill-opacity="0.501961"/><text fill="#FFFFFF" font-family="Calibri,Calibri_MSFontService,Arial" font-weight="700" font-size="15" transform="translate(671.878 30)">Approver</text><path d="M649.5 40.6668C649.5 38.9179 650.918 37.5001 652.667 37.5001L751.333 37.5001C753.082 37.5001 754.5 38.9179 754.5 40.6668L754.5 53.3334C754.5 55.0824 753.082 56.5002 751.333 56.5002L652.667 56.5002C650.918 56.5002 649.5 55.0824 649.5 53.3334Z" stroke="#FFFFFF" stroke-width="1.33333" stroke-miterlimit="8" fill="none" fill-rule="evenodd"/><text fill="#FFFFFF" font-family="Calibri,Calibri_MSFontService,Arial" font-weight="400" font-size="15" transform="translate(690.199 52)">P2P</text><path d="M0 0 0.080105 27.2518" stroke="#4472C4" stroke-width="0.666667" stroke-miterlimit="8" fill="none" fill-rule="evenodd" transform="matrix(-1 0 0 1 449.58 64.5001)"/><path d="M0 0 0.214593 29.2235" stroke="#4472C4" stroke-width="0.666667" stroke-miterlimit="8" fill="none" fill-rule="evenodd" transform="matrix(-1 0 0 1 700.715 62.5001)"/><rect x="778" y="91" width="103" height="83" stroke="#C55A11" stroke-width="2" stroke-miterlimit="8" fill="#FFFFFF"/><text font-family="Calibri,Calibri_MSFontService,Arial" font-weight="400" font-size="16" transform="translate(792.177 138)">Place order</text><rect x="904" y="91" width="103" height="83" stroke="#C55A11" stroke-width="2" stroke-miterlimit="8" fill="#FFFFFF"/><text font-family="Calibri,Calibri_MSFontService,Arial" font-weight="400" font-size="16" transform="translate(930.978 138)">Receive</text><rect x="1033" y="91" width="102" height="83" stroke="#C55A11" stroke-width="2" stroke-miterlimit="8" fill="#FFFFFF"/><text font-family="Calibri,Calibri_MSFontService,Arial" font-weight="400" font-size="16" transform="translate(1049.15 128)">Invoices to </text><text font-family="Calibri,Calibri_MSFontService,Arial" font-weight="400" font-size="16" transform="translate(1046.47 147)">be received</text><path d="M765.5 16.6988C765.5 11.6185 769.618 7.50005 774.699 7.50005L883.301 7.50005C888.382 7.50005 892.5 11.6185 892.5 16.6988L892.5 53.3013C892.5 58.3816 888.382 62.5 883.301 62.5L774.699 62.5C769.618 62.5 765.5 58.3816 765.5 53.3013Z" stroke="#4472C4" stroke-width="1.33333" stroke-miterlimit="8" fill="#4472C4" fill-rule="evenodd" fill-opacity="0.501961"/><text fill="#FFFFFF" font-family="Calibri,Calibri_MSFontService,Arial" font-weight="700" font-size="15" transform="translate(798.22 28)">Purchaser</text><path d="M774.5 40.8335C774.5 38.9925 775.992 37.5001 777.833 37.5001L884.167 37.5001C886.008 37.5001 887.5 38.9925 887.5 40.8335L887.5 54.1666C887.5 56.0076 886.008 57.5001 884.167 57.5001L777.833 57.5001C775.992 57.5001 774.5 56.0076 774.5 54.1666Z" stroke="#FFFFFF" stroke-width="1.33333" stroke-miterlimit="8" fill="none" fill-rule="evenodd"/><text fill="#FFFFFF" font-family="Calibri,Calibri_MSFontService,Arial" font-weight="400" font-size="15" transform="translate(819.094 52)">P2P</text><path d="M892.5 15.8335C892.5 10.6788 896.679 6.50005 901.834 6.50005L1011.17 6.50005C1016.32 6.50005 1020.5 10.6788 1020.5 15.8335L1020.5 53.1666C1020.5 58.3213 1016.32 62.5 1011.17 62.5L901.834 62.5C896.679 62.5 892.5 58.3213 892.5 53.1666Z" stroke="#44546A" stroke-width="1.33333" stroke-miterlimit="8" fill="#44546A" fill-rule="evenodd" fill-opacity="0.501961"/><text fill="#FFFFFF" font-family="Calibri,Calibri_MSFontService,Arial" font-weight="700" font-size="15" transform="translate(929.727 28)">Receiver</text><path d="M901.5 41.6668C901.5 39.9179 902.918 38.5001 904.667 38.5001L1006.33 38.5001C1008.08 38.5001 1009.5 39.9179 1009.5 41.6668L1009.5 54.3333C1009.5 56.0822 1008.08 57.5001 1006.33 57.5001L904.667 57.5001C902.918 57.5001 901.5 56.0822 901.5 54.3333Z" stroke="#FFFFFF" stroke-width="1.33333" stroke-miterlimit="8" fill="none" fill-rule="evenodd"/><text fill="#FFFFFF" font-family="Calibri,Calibri_MSFontService,Arial" font-weight="400" font-size="15" transform="translate(943.818 52)">P2P</text><path d="M1147.5 15.8336C1147.5 10.6788 1151.68 6.50005 1156.83 6.50005L1263.17 6.50005C1268.32 6.50005 1272.5 10.6788 1272.5 15.8336L1272.5 53.1665C1272.5 58.3213 1268.32 62.5001 1263.17 62.5001L1156.83 62.5001C1151.68 62.5001 1147.5 58.3213 1147.5 53.1665Z" stroke="#70AD47" stroke-width="1.33333" stroke-miterlimit="8" fill="#70AD47" fill-rule="evenodd" fill-opacity="0.501961"/><text fill="#FFFFFF" font-family="Calibri,Calibri_MSFontService,Arial" font-weight="700" font-size="15" transform="translate(1181.89 28)">Operator</text><path d="M1156.5 39.8335C1156.5 37.9925 1157.99 36.5001 1159.83 36.5001L1261.17 36.5001C1263.01 36.5001 1264.5 37.9925 1264.5 39.8335L1264.5 53.1666C1264.5 55.0076 1263.01 56.5001 1261.17 56.5001L1159.83 56.5001C1157.99 56.5001 1156.5 55.0076 1156.5 53.1666Z" stroke="#FFFFFF" stroke-width="1.33333" stroke-miterlimit="8" fill="none" fill-rule="evenodd"/><text fill="#FFFFFF" font-family="Calibri,Calibri_MSFontService,Arial" font-weight="400" font-size="15" transform="translate(1198.94 51)">P2P</text><path d="M828.5 62.5001 829.18 91.613" stroke="#4472C4" stroke-width="0.666667" stroke-miterlimit="8" fill="none" fill-rule="evenodd"/><path d="M956.5 62.5001 956.534 91.1481" stroke="#4472C4" stroke-width="0.666667" stroke-miterlimit="8" fill="none" fill-rule="evenodd"/><path d="M1084.5 63.5001 1084.85 91.6969" stroke="#4472C4" stroke-width="0.666667" stroke-miterlimit="8" fill="none" fill-rule="evenodd"/><rect x="1160" y="91" width="103" height="83" stroke="#C55A11" stroke-width="2" stroke-miterlimit="8" fill="#FFFFFF"/><text font-family="Calibri,Calibri_MSFontService,Arial" font-weight="400" font-size="16" transform="translate(1178.21 138)">To be paid</text><path d="M1021.5 16.0003C1021.5 10.7534 1025.75 6.50005 1031 6.50005L1137 6.50005C1142.25 6.50005 1146.5 10.7534 1146.5 16.0003L1146.5 53.9998C1146.5 59.2467 1142.25 63.5 1137 63.5L1031 63.5C1025.75 63.5 1021.5 59.2467 1021.5 53.9998Z" stroke="#70AD47" stroke-width="1.33333" stroke-miterlimit="8" fill="#548235" fill-rule="evenodd"/><text fill="#FFFFFF" font-family="Calibri,Calibri_MSFontService,Arial" font-weight="700" font-size="15" transform="translate(1052.93 28)">Controller</text><path d="M1030.5 39.8335C1030.5 37.9925 1031.99 36.5001 1033.83 36.5001L1135.17 36.5001C1137.01 36.5001 1138.5 37.9925 1138.5 39.8335L1138.5 53.1666C1138.5 55.0076 1137.01 56.5001 1135.17 56.5001L1033.83 56.5001C1031.99 56.5001 1030.5 55.0076 1030.5 53.1666Z" stroke="#FFFFFF" stroke-width="1.33333" stroke-miterlimit="8" fill="#548235" fill-rule="evenodd"/><text fill="#FFFFFF" font-family="Calibri,Calibri_MSFontService,Arial" font-weight="400" font-size="15" transform="translate(1072.89 51)">P2P</text><path d="M1210.5 62.5001 1212.28 91.613" stroke="#4472C4" stroke-width="0.666667" stroke-miterlimit="8" fill="none" fill-rule="evenodd"/><rect x="271" y="90" width="103" height="84" stroke="#C55A11" stroke-width="2" stroke-miterlimit="8" fill="#FFFFFF"/><text font-family="Calibri,Calibri_MSFontService,Arial" font-weight="400" font-size="16" transform="translate(284.305 137)">Orchestrate</text><path d="M260.5 20.3336C260.5 15.455 264.455 11.5001 269.334 11.5001L376.667 11.5001C381.545 11.5001 385.5 15.455 385.5 20.3336L385.5 55.6665C385.5 60.5451 381.545 64.5001 376.667 64.5001L269.334 64.5001C264.455 64.5001 260.5 60.5451 260.5 55.6665Z" stroke="#7030A0" stroke-width="1.33333" stroke-miterlimit="8" fill="#7030A0" fill-rule="evenodd" fill-opacity="0.501961"/><text fill="#FFFFFF" font-family="Calibri,Calibri_MSFontService,Arial" font-weight="700" font-size="15" transform="translate(283.613 32)">Orchestrator</text><path d="M266.5 42.8335C266.5 40.9925 267.992 39.5001 269.833 39.5001L376.167 39.5001C378.008 39.5001 379.5 40.9925 379.5 42.8335L379.5 56.1666C379.5 58.0076 378.008 59.5001 376.167 59.5001L269.833 59.5001C267.992 59.5001 266.5 58.0076 266.5 56.1666Z" stroke="#FFFFFF" stroke-width="1.33333" stroke-miterlimit="8" fill="none" fill-rule="evenodd"/><text fill="#FFFFFF" font-family="Calibri,Calibri_MSFontService,Arial" font-weight="400" font-size="15" transform="translate(311.363 54)">P2P</text><path d="M0 0 0.088189 25.8166" stroke="#4472C4" stroke-width="0.666667" stroke-miterlimit="8" fill="none" fill-rule="evenodd" transform="matrix(-1 0 0 1 323.588 64.5001)"/><rect x="524" y="91" width="103" height="83" stroke="#C55A11" stroke-width="2" stroke-miterlimit="8" fill="#FFFFFF"/><text font-family="Calibri,Calibri_MSFontService,Arial" font-weight="400" font-size="16" transform="translate(535.909 138)">Supplement</text><path d="M575.5 62.5001 575.771 91.3936" stroke="#4472C4" stroke-width="0.666667" stroke-miterlimit="8" fill="none" fill-rule="evenodd"/><path d="M513.5 17.5126C513.5 13.0874 517.087 9.50005 521.513 9.50005L629.488 9.50005C633.913 9.50005 637.5 13.0874 637.5 17.5126L637.5 54.4875C637.5 58.9127 633.913 62.5001 629.488 62.5001L521.513 62.5001C517.087 62.5001 513.5 58.9127 513.5 54.4875Z" stroke="#00B0F0" stroke-width="1.33333" stroke-miterlimit="8" fill="#A9D18E" fill-rule="evenodd"/><text fill="#FFFFFF" font-family="Calibri,Calibri_MSFontService,Arial" font-weight="700" font-size="15" transform="translate(531.649 30)">Supplementer</text><path d="M523.5 41.5001C523.5 39.8432 524.843 38.5001 526.5 38.5001L626.5 38.5001C628.157 38.5001 629.5 39.8432 629.5 41.5001L629.5 53.5C629.5 55.1569 628.157 56.5001 626.5 56.5001L526.5 56.5001C524.843 56.5001 523.5 55.1569 523.5 53.5Z" stroke="#FFFFFF" stroke-width="1.33333" stroke-miterlimit="8" fill="#A9D18E" fill-rule="evenodd"/><text fill="#FFFFFF" font-family="Calibri,Calibri_MSFontService,Arial" font-weight="400" font-size="15" transform="translate(564.636 52)">P2P</text><path d="M-114.5 20.3336C-114.5 15.455-110.545 11.5001-105.667 11.5001L2.66654 11.5001C7.54515 11.5001 11.5001 15.455 11.5001 20.3336L11.5001 55.6665C11.5001 60.5452 7.54515 64.5001 2.66654 64.5001L-105.667 64.5001C-110.545 64.5001-114.5 60.5452-114.5 55.6665Z" stroke="#C00000" stroke-width="1.33333" stroke-miterlimit="8" fill="#C00000" fill-rule="evenodd" fill-opacity="0.501961"/><text fill="#FFFFFF" font-family="Calibri,Calibri_MSFontService,Arial" font-weight="700" font-size="15" transform="translate(-81.522 33)">Regulator</text><path d="M-104.5 41.8335C-104.5 39.9925-103.008 38.5001-101.167 38.5001L2.1666 38.5001C4.00761 38.5001 5.50005 39.9925 5.50005 41.8335L5.50005 55.1666C5.50005 57.0076 4.00761 58.5001 2.1666 58.5001L-101.167 58.5001C-103.008 58.5001-104.5 57.0076-104.5 55.1666Z" stroke="#FFFFFF" stroke-width="1.33333" stroke-miterlimit="8" fill="none" fill-rule="evenodd"/><text fill="#FFFFFF" font-family="Calibri,Calibri_MSFontService,Arial" font-weight="400" font-size="15" transform="translate(-61.5018 53)">P2P</text><path d="M135.5 19.5002C135.5 14.5296 139.53 10.5001 144.5 10.5001L250.5 10.5001C255.471 10.5001 259.5 14.5296 259.5 19.5002L259.5 55.4999C259.5 60.4705 255.471 64.5001 250.5 64.5001L144.5 64.5001C139.53 64.5001 135.5 60.4705 135.5 55.4999Z" stroke="#A81E8A" stroke-width="1.33333" stroke-miterlimit="8" fill="#A81E8A" fill-rule="evenodd" fill-opacity="0.501961"/><text fill="#FFFFFF" font-family="Calibri,Calibri_MSFontService,Arial" font-weight="700" font-size="15" transform="translate(154.418 31)">Administrator</text><path d="M146.5 43.6669C146.5 41.9179 147.918 40.5001 149.667 40.5001L249.333 40.5001C251.082 40.5001 252.5 41.9179 252.5 43.6669L252.5 56.3334C252.5 58.0823 251.082 59.5002 249.333 59.5002L149.667 59.5002C147.918 59.5002 146.5 58.0823 146.5 56.3334Z" stroke="#FFFFFF" stroke-width="1.33333" stroke-miterlimit="8" fill="none" fill-rule="evenodd"/><text fill="#FFFFFF" font-family="Calibri,Calibri_MSFontService,Arial" font-weight="400" font-size="15" transform="translate(188.045 55)">P2P</text><path d="M11.5001 19.5002C11.5001 14.5295 15.5295 10.5001 20.5002 10.5001L128.5 10.5001C133.471 10.5001 137.5 14.5295 137.5 19.5002L137.5 55.4999C137.5 60.4706 133.471 64.5 128.5 64.5L20.5002 64.5C15.5295 64.5 11.5001 60.4706 11.5001 55.4999Z" stroke="#F96767" stroke-width="1.33333" stroke-miterlimit="8" fill="#F6404D" fill-rule="evenodd" fill-opacity="0.498039"/><text fill="#FFFFFF" font-family="Calibri,Calibri_MSFontService,Arial" font-weight="700" font-size="15" transform="translate(45.2881 32)">Governor</text><path d="M20.5001 41.6668C20.5001 39.9179 21.9178 38.5001 23.6668 38.5001L128.333 38.5001C130.082 38.5001 131.5 39.9179 131.5 41.6668L131.5 54.3333C131.5 56.0823 130.082 57.5001 128.333 57.5001L23.6668 57.5001C21.9178 57.5001 20.5001 56.0823 20.5001 54.3333Z" stroke="#FFFFFF" stroke-width="1.33333" stroke-miterlimit="8" fill="none" fill-rule="evenodd"/><text fill="#FFFFFF" font-family="Calibri,Calibri_MSFontService,Arial" font-weight="400" font-size="15" transform="translate(64.3083 53)">P2P</text><rect x="23" y="91" width="103" height="83" stroke="#C55A11" stroke-width="2" stroke-miterlimit="8" fill="#FFFFFF"/><text font-family="Calibri,Calibri_MSFontService,Arial" font-weight="400" font-size="16" transform="translate(50.3899 138)">Govern</text><path d="M74.5001 64.5001 74.5719 91.7942" stroke="#4472C4" stroke-width="0.666667" stroke-miterlimit="8" fill="none" fill-rule="evenodd"/><rect x="146" y="91" width="102" height="83" stroke="#C55A11" stroke-width="2" stroke-miterlimit="8" fill="#FFFFFF"/><text font-family="Calibri,Calibri_MSFontService,Arial" font-weight="400" font-size="16" transform="translate(161.52 138)">Administer</text><path d="M0 0 0.0745407 26.8405" stroke="#4472C4" stroke-width="0.666667" stroke-miterlimit="8" fill="none" fill-rule="evenodd" transform="matrix(-1 0 0 1 197.575 64.5001)"/><rect x="-103" y="91" width="103" height="83" stroke="#C55A11" stroke-width="2" stroke-miterlimit="8" fill="#FFFFFF"/><text font-family="Calibri,Calibri_MSFontService,Arial" font-weight="400" font-size="16" transform="translate(-80.0698 138)">Regulate</text><path d="M0 0 0.0144882 26.2125" stroke="#4472C4" stroke-width="0.666667" stroke-miterlimit="8" fill="none" fill-rule="evenodd" transform="matrix(-1 0 0 1 -51.4856 64.5001)"/></g></svg>